<svg xmlns="http://www.w3.org/2000/svg" xmlns:xlink="http://www.w3.org/1999/xlink" version="1.1" x="0px" y="0px" viewBox="0 0 612 990" style="enable-background:new 0 0 612 792;" xml:space="preserve"><g><path d="M301.5,17.5l-2.5,4.9l-0.1,0l-0.1,0.3L171.6,271.7L69,404.7l102.6,132.9l127.6,232.7l0,0.1l0,0l2.2,4.1l132.6-236.9   l98.5-132.9l-98.5-133L301.5,17.5z M225.5,520.7L123.5,404.6l102.1-116.2l-28,115.8l-0.2,0.9L225.5,520.7z M205.6,405.2l29-120.1   l63.8,119.5l-63.8,119.5L205.6,405.2z M239.8,277.8h57.2l1.7,110.3L239.8,277.8z M296.9,269.8h-59.4l60-212.7L296.9,269.8z    M287.8,62l-58.6,207.9h-47.6L287.8,62z M177,277.8h47.3l-95.5,108.7l32.9-88.8L177,277.8z M79.1,404.7l66.1-85.7L114,403.2   l-0.5,1.4l31.8,85.8L79.1,404.7z M161.7,511.6l-33-88.9l95.5,108.7H177L161.7,511.6z M181.8,539.4h47.5l58.7,193.7L181.8,539.4z    M237.6,539.4h59.3l0.6,197.5L237.6,539.4z M296.9,531.4h-57.2l58.9-110.3L296.9,531.4z M424.2,269.8h-52.9L314.3,59.3L424.2,269.8   z M306.6,421.3L361,531.4h-56.1L306.6,421.3z M304.9,277.8H361L306.6,388L304.9,277.8z M307.4,404.6l59-119.6l31.3,119.6   l-31.3,119.6L307.4,404.6z M405.7,405.6l0.3-1l-30.3-115.9l106.1,115.9L375.6,520.5L405.7,405.6z M305.5,57.3l57.5,212.6h-58.1   L305.5,57.3z M304.9,539.4h58L305.5,738L304.9,539.4z M314.9,734.3l56.3-194.8h52.8L314.9,734.3z M428.8,531.4h-52.3l101-110.3   l-32.3,88.2L428.8,531.4z M522.7,404.7L462,486.6l30-82l-30-81.8L522.7,404.7z M477.5,388.1l-101-110.3h52.2l16.4,22.2L477.5,388.1   z"/></g></svg>