<svg xmlns="http://www.w3.org/2000/svg" xmlns:xlink="http://www.w3.org/1999/xlink" version="1.1" x="0px" y="0px" viewBox="0 0 612 990" style="enable-background:new 0 0 612 792;" xml:space="preserve"><g><path d="M451.4,233H324.3h-22.7H165.4h-13.7L21.1,350.7l286.1,283.8l2.2,2.1l288.2-285.9L468.1,233H451.4z M433.6,239.1l-46.3,36.2   l-0.2-0.2l-0.3,0.3l-62.4-36.3H433.6z M397.8,353.9l-25.1,76.7l-52.1-76.7H397.8z M322.3,347.8l63.1-62.4l12.9,62.4H322.3z    M404.2,353.9h58l-81.9,73L404.2,353.9z M404.5,347.8L392,287.4l70,60.4H404.5z M382.2,279.8l-66.9,66.2l-0.3-0.4l-0.5,0.6   l-70.3-66.6l68.8-40.2L382.2,279.8z M215.1,347.8h-53.8l72-59.7L215.1,347.8z M240.7,284.8l66.5,63h-85.6L240.7,284.8z    M215.2,353.9l23.8,72.9l-78.4-72.9H215.2z M221.6,353.9h86.9l-61.8,76.9L221.6,353.9z M301.7,239.1l-62.1,36.3l-0.3-0.3l-0.3,0.3   l-53.6-36.3H301.7z M154.1,239.1h20.3l59.6,40.4l-80.8,67l-49-62.5L154.1,239.1z M99.7,288.1l46.8,59.7h-113L99.7,288.1z M33,353.9   h114.2l-45.1,68.5L33,353.9z M106.5,426.8l46.9-71.3l89.5,83.3l59.6,182.4L106.5,426.8z M249,437.8l65.7-81.8l55.7,81.9   l-60.7,185.4L249,437.8z M317,620.4l59.6-181.9l93-82.8l42.6,71.2L317,620.4z M516.7,422.3l-41-68.4h109.9L516.7,422.3z    M585.2,347.8h-109c15.2-21.8,36.7-52.1,43.2-59.9L585.2,347.8z M490.9,316.3c-8.8,12.4-17.4,24.7-21.2,30l-77.7-67l51.5-40.2h22.2   l49.1,44.7C511.9,287.3,505.5,295.7,490.9,316.3z"/></g></svg>