<svg xmlns="http://www.w3.org/2000/svg" xmlns:xlink="http://www.w3.org/1999/xlink" version="1.1" x="0px" y="0px" viewBox="0 0 612 990" style="enable-background:new 0 0 612 792;" xml:space="preserve"><g><path d="M301.7,762.9l0.6,0.1l96.4-14.7l67-200.9L304.4,14.8L143.5,546.2l-0.4,1.2l65.9,199.8L301.7,762.9z M219.5,740.9l41.3-51.1   l34.2,63.8L219.5,740.9z M250.5,547.3l23.3-210.2l22.7,212.2l-33.7,110.9L250.5,547.3z M302.3,750.3l-37.1-69.4l0-0.4l36.3-119.7   L338.9,679L302.3,750.3z M305.4,547l28.9-212.5l1.4,4.4l23.8,208.4l-17.6,114.6L305.4,547z M309.5,753.8l34.5-67.1l44.2,55.1   L309.5,753.8z M457.2,547.3l-35,104.9l-10.5-104.1l-4.2-165L457.2,547.3z M416.1,670.7l-21.9,65.8l-46.1-57.4l57-117.3L416.1,670.7   z M351,654.8L367.5,548l0.1-0.5L348,376.1L404,545.8L351,654.8z M398.8,354.3l4.2,163l-59.4-180.2l-30.2-265L398.8,354.3z    M331.3,299.8L331,299l-29.8,219.1L278,300.2l26.3-237.1L331.3,299.8z M209.9,354.7L295.1,73l-28.9,260l-61.7,186.8L209.9,354.7z    M262,371.4l-19.5,175.5l0,0.4l11.9,108.9L204,547.1L262,371.4z M151.5,547.3l49.4-163.1l-5.2,162.9c-2.6,32.9-6.6,81.1-9.2,106.2   L151.5,547.3z M198.7,608.1c1.4-16.8,2.8-33.6,3.8-45.2l54.7,118.3l0,0.4l-43.5,53.9L192.4,671C193.2,667,194.7,654.4,198.7,608.1z   "/></g></svg>