<svg xmlns="http://www.w3.org/2000/svg" xmlns:xlink="http://www.w3.org/1999/xlink" version="1.1" x="0px" y="0px" viewBox="0 0 612 990" style="enable-background:new 0 0 612 792;" xml:space="preserve"><g><path d="M308.9-3523.8l65.1-16.3l69.9-166l0.5-1.2L308.9-4269l-122.2,504.8l-15,62.1l67.8,160.3L308.9-3523.8z M273.2-3682.8   l31.2,59.5l0.5,83.5l-60.5-85.4L273.2-3682.8z M240.4-3634.9l-21.7-61.2l17.7-56.9l32.2,61.5L240.4-3634.9z M312.3-3624.3l30-57.9   l27.7,57.1l-57.2,84.4L312.3-3624.3z M346.9-3691l32-61.8l17.6,58.6l-22.3,59.4L346.9-3691z M368.3-3546.9l-50.1,12.5l53.9-79.5   l5.8,44.3L368.3-3546.9z M383.9-3584l-5.2-40.2l21.5-57.3l10.3,34.3L383.9-3584z M436.1-3708l-20.7,49.3l-10.6-35.1l21.1-56.3   L436.1-3708z M422.9-3762.9l-0.6-0.2l-21.3,56.7l-17.4-57.7l-59.6-408L422.9-3762.9z M312.9-4194l62.8,430l-33.2,64.1l-30.5-62.7   L312.9-4194z M338-3691.1l-29.9,57.8l-30.5-58.2l30.5-61.1L338-3691.1z M304.1-3762.6l-31.1,62.4l-33.4-63.7l65.4-431.3   L304.1-3762.6z M293-4169.3l-61.4,405.1l-17.3,55.7l-19.5-55L293-4169.3z M180-3702.8l11.3-46.5l19,53.5l-11.6,37.2L180-3702.8z    M231.8-3580.5l-28.3-66.9l11.2-36l21,59.2L231.8-3580.5z M242.8-3613.6l55.9,78.9l-53.4-13.9l-6.9-16.3L242.8-3613.6z"/><path d="M938.1-3518.7l88.7-31.1l77.9-199.2l0.5-1.2l-132-515.1h-13.8h-17.3h-7.4h-19.2h-17.3l-127.4,513.9l-0.3,1.2l78.4,209.2   L938.1-3518.7z M864.7-3545.2l42.2-17.5l2.6,3.2l0,0l20.2,30.6L864.7-3545.2z M869.4-3658.4l23.9-81l42,102.1l-26.6,59.9   L869.4-3658.4z M913.4-3568.3l26.1-58.8l25.4,61.8l-26.5,35L913.4-3568.3z M944-3637.1l45.3-101.8l20.2,85.6l-39.6,79L944-3637.1z    M949.1-3531l19.4-25.7l0,0l3.2-3.4l37.3,8.1L949.1-3531z M1021.2-3557.5l-45.8-10l37-73.7l15.7,66.3L1021.2-3557.5z M1033.2-3588   l-15.2-64.3l43-85.6l9.2,55.4L1033.2-3588z M967-4257.2l129.8,506.6l-20.9,53.5l-11.1-66.4l-0.4,0.7l-103.4-494.5H967z    M952.9-4257.2l105.8,505.9l-43.6,86.8l-20.7-87.6l-43.6-505.2H952.9z M942.8-4257.2l43.6,505.1l-46.5,104.7l-43.1-104.7   l37.3-505.1H942.8z M922.1-4257.2h3.9l-37.3,505.1l-24.5,83.1L824-3752L922.1-4257.2z M778.9-3750.6l125.6-506.6h9.5L818.2-3764   l-0.2-0.4l-14,80.5L778.9-3750.6z M809.5-3669l12.1-69.5l39.3,80.9l-20.7,70.3L809.5-3669z M866.1-3647l37.4,77l-49.1,20.4   l-9.5-25.3L866.1-3647z"/><path d="M1607.7-3525.2l0.6,0.1l96.4-14.7l67-200.9l-161.2-532.6l-160.9,531.3l-0.4,1.2l65.9,199.8L1607.7-3525.2z M1525.5-3547.1   l41.3-51.1l34.2,63.8L1525.5-3547.1z M1556.5-3740.7l23.3-210.2l22.7,212.2l-33.7,110.9L1556.5-3740.7z M1608.3-3537.7l-37.1-69.4   l0-0.4l36.3-119.7l37.5,118.2L1608.3-3537.7z M1611.4-3741l28.9-212.5l1.4,4.4l23.8,208.4l-17.6,114.6L1611.4-3741z M1615.5-3534.2   l34.5-67.1l44.2,55.1L1615.5-3534.2z M1763.2-3740.7l-35,104.9l-10.5-104.1l-4.2-165L1763.2-3740.7z M1722.1-3617.3l-21.9,65.8   l-46.1-57.4l57-117.3L1722.1-3617.3z M1657-3633.3l16.4-106.8l0.1-0.5l-19.5-171.3l55.9,169.7L1657-3633.3z M1704.8-3933.8l4.2,163   l-59.4-180.2l-30.2-265L1704.8-3933.8z M1637.3-3988.2l-0.2-0.8l-29.8,219.1l-23.3-217.9l26.3-237.1L1637.3-3988.2z M1515.9-3933.4   l85.3-281.7l-28.9,260l-61.7,186.8L1515.9-3933.4z M1568-3916.6l-19.5,175.5l0,0.4l11.9,108.9l-50.4-109.1L1568-3916.6z    M1457.5-3740.7l49.4-163.1l-5.2,162.9c-2.6,32.9-6.6,81.1-9.2,106.2L1457.5-3740.7z M1504.7-3679.9c1.4-16.8,2.8-33.6,3.8-45.2   l54.7,118.3l0,0.4l-43.5,53.9l-21.3-64.4C1499.2-3621,1500.7-3633.6,1504.7-3679.9z"/><path d="M2239.4-3528.7h111.7l50-8.7l7.9,0.3l0.1-1.7l0.9-0.2l97.4-251.2l0.6-1.4l-172.5-457.2l-5.9,0.1v0l-30.9,0.3l-41.5,0.4   l-174.2,455l-0.6,1.4l98.6,252.4L2239.4-3528.7z M2189.7-3545.7l-4.7-113.3l49.3,121.2L2189.7-3545.7z M2238.9-3547.6l-54.6-134.3   l31.6-100.6l74.8,101.3L2238.9-3547.6z M2209-3787.1l-29.8,95l-49-95H2209z M2129.1-3795.1l93.9-298l-12.2,298H2129.1z    M2222.3-3787.1h144.1l-70.2,97.1l-1.1-2.7l-1.1,2.8L2222.3-3787.1z M2243.2-3536.7l52-134l52.5,134H2243.2z M2401.3-3545.5   l-44.4,7.7l48.8-123.4L2401.3-3545.5z M2406.1-3683.9l-54,136.5l-52.3-133.6l73.3-101.4l33.4,98.2L2406.1-3683.9z M2369.4-4094.6   l93.9,299.5h-85.1L2369.4-4094.6z M2379.9-3787.1h82.1l-50.6,92.8L2379.9-3787.1z M2464.8-3702.5l-54.9,141.6l4.7-122.3l50.3-92.1   V-3702.5z M2472.8-3723.2v-63.9h24.8L2472.8-3723.2z M2498-3795.1h-26.1l-50.4-202.6L2498-3795.1z M2397.4-4061.7l35.5,142.6   l-90.3-288L2397.4-4061.7z M2300.4-4240.3l23.2-0.2l37,117.8l8.4,286.6l-68.8-329.1L2300.4-4240.3z M2369.4-3795.1h-149.5   l76.2-350.5L2369.4-3795.1z M2269.3-4240l23.1-0.2l-0.2,75.1l-71.7,329.8l11.7-286.9L2269.3-4240z M2253-4214.8l-96.7,306.9   l36.5-149.6L2253-4214.8z M2118.6-3720.7l-25.9-66.4h26.9L2118.6-3720.7z M2119.7-3795.3l0,0.2h-27.4l77.8-203.2l-49.5,203.1   L2119.7-3795.3z M2127.4-3775l48.6,94.3l5,119.7l-54.7-139.9L2127.4-3775z"/><path d="M2829.3-3624.9l140,109l136.3-109.4l8.2-28.8l0.2,0.1l12.1-43.3l27.6-96.4L2974.2-4257l-0.3-1.6h-0.3l-3.6-9.4l-3.7,9.4   h-0.1l-0.1,0.5L2782.3-3795l-0.5,1.3l47.1,167.6L2829.3-3624.9z M2844.4-3623.3l57.1-0.1l56.3,88.3L2844.4-3623.3z M2875.5-3789.5   h86.6l-56.5,148.2L2875.5-3789.5z M2896.5-3645.7l-100-143.8h70.9L2896.5-3645.7z M2911-3623.3l119.1-0.1l-60.8,91.7L2911-3623.3z    M2981.9-3536.3l57.8-87.2l51-0.1L2981.9-3536.3z M3035-3641.4l-61.1-148.1h89L3035-3641.4z M3118.5-3699.5l-19.4,67.9l-54.9,0.1   l95.3-142.8L3118.5-3699.5z M3043.9-3645.6l27.1-143.9h68.9L3043.9-3645.6z M3143.7-3797.5h-73l-86.3-411.2L3143.7-3797.5z    M2973.8-4220.1l88.7,422.6h-90.6L2973.8-4220.1z M2968.1-3782.7l62.4,151.2l-120.1,0.1L2968.1-3782.7z M2963.9-3797.5h-88.3   l90.2-421.1L2963.9-3797.5z M2955.9-4211l-88.5,413.5h-75.5L2955.9-4211z M2795.7-3776.7l101.1,145.3l-61,0.1l-7.8-27.7l0.4-0.1   L2795.7-3776.7z"/><path d="M423.1-2665.9l99.8-195.3l-220-534.8l-0.2-0.9h-0.2l-3.8-9.3l-3.8,9.3h0l0,0.1L74.4-2861.3l95.8,195.3H423.1z    M368.9-2673.9l29.6-183.6h71c-9.1,25.2-50,135.6-67.8,183.6H368.9z M418.2-2673.9h-7.8c11.9-32.1,60.1-162.1,67.7-183.6h34   L418.2-2673.9z M512.5-2865.5h-34.4l-145-435.9L512.5-2865.5z M469.7-2865.5h-71.5l-84-467.6L469.7-2865.5z M300.7-2938.4   l1.8-414.4l87.6,487.3h-89.5L300.7-2938.4z M300.5-2857.5h90l-29.6,183.6H302l-1.7-101.2L300.5-2857.5z M196.8-2673.9l-73.5-183.6   h74.2l31.8,183.6H196.8z M237.4-2673.9l-31.8-183.6h86.9l-0.2,82.4l1.7,101.2H237.4z M292.7-2938.5l-0.2,72.9h-86.9l88.9-485.4   L292.7-2938.5z M197.5-2865.5h-74.5l160.4-469L197.5-2865.5z M260.7-3293.1l-146.3,427.5H84.8L260.7-3293.1z M114.6-2857.5   l73.5,183.6h-12.9l-90.1-183.6H114.6z"/><path d="M954-2806.1l0.1,0l2.1,2.1l289.5-286.3h2.5l-108.2-144.8l-314.1,0.8l-1.2,0l0,0l-55.9,0.1l-104.6,137.5h-1.3l291.1,290.4   L954-2806.1z M959.8-2825.5v-264.8h87.7L959.8-2825.5z M1051.8-3083.5l0.3,0.8l2.1-7.7h88.5L968-2830.5L1051.8-3083.5z    M979.2-2835.7l171.1-254.7h86.4L979.2-2835.7z M1235.6-3096.7h-84l-9.3-124.8L1235.6-3096.7z M1135.4-3228.8l8.6,116.4   l-49.2-116.3L1135.4-3228.8z M1143.9-3096.7h-87.7h-0.2l34.7-125.8L1143.9-3096.7z M1085.8-3228.7l-34.3,124.3l-40.9-124.1   L1085.8-3228.7z M1047.5-3096.7h-86.4l45-125.7L1047.5-3096.7z M1001.5-3228.5l-44.7,125.1l-40.1-124.9L1001.5-3228.5z    M952.3-3096.7h-85.4l45.1-125.8L952.3-3096.7z M907.3-3228.2l-45.1,125.7l-31.1-125.5L907.3-3228.2z M826.1-3222l31.1,125.3h-86   L826.1-3222z M773.4-3227.9l48.5-0.1L770-3109.6L773.4-3227.9z M766.9-3221.3l-3.6,124.6h-91.3L766.9-3221.3z M678.1-3090.4h86.6   L936-2833L678.1-3090.4z M772.3-3090.4H859l87.4,261.4L772.3-3090.4z M953.5-2827.5l-87.8-262.9h87.8V-2827.5z"/><path d="M1609.8-2783.7l0.6,2l0.6-2.1l286.2-302l2.1-2.2l-129.6-125.5h-317.4l-130.9,125.5l286.7,302.6L1609.8-2783.7z    M1610.3-2802.1l-90.5-282.8h177.7L1610.3-2802.1z M1703.9-3085H1833l-214.8,277.8L1703.9-3085z M1631.5-2814.3l209.2-270.7h47.2   L1631.5-2814.3z M1887.5-3091.1H1841l-58.9-102.1L1887.5-3091.1z M1766.8-3207.5l67.2,116.5h-130.1l-38.9-116.5H1766.8z    M1658.6-3207.5l38.9,116.5h-177.3l44.9-116.5H1658.6z M1455.3-3207.5h103.2l-44.9,116.5H1386L1455.3-3207.5z M1439.5-3192.8   l-60.5,101.7h-45.6L1439.5-3192.8z M1332.9-3085h46.3l209.7,270.3L1332.9-3085z M1386.9-3085h126.6l88.8,277.5L1386.9-3085z"/><path d="M2440.6-3199.1h-127.1h-22.7h-136.2h-13.7l-130.7,117.8l286.1,283.8l2.2,2.1l288.2-285.9l-129.4-117.8H2440.6z    M2422.8-3193l-46.3,36.2l-0.2-0.2l-0.3,0.3l-62.4-36.3H2422.8z M2386.9-3078.2l-25.1,76.7l-52.1-76.7H2386.9z M2311.4-3084.3   l63.1-62.4l12.9,62.4H2311.4z M2393.4-3078.2h58l-81.9,73L2393.4-3078.2z M2393.6-3084.3l-12.5-60.4l70,60.4H2393.6z    M2371.3-3152.3l-66.9,66.2l-0.3-0.4l-0.5,0.6l-70.3-66.6l68.8-40.2L2371.3-3152.3z M2204.2-3084.3h-53.8l72-59.7L2204.2-3084.3z    M2229.8-3147.3l66.5,63h-85.6L2229.8-3147.3z M2204.3-3078.2l23.8,72.9l-78.4-72.9H2204.3z M2210.7-3078.2h86.9l-61.8,76.9   L2210.7-3078.2z M2290.8-3193l-62.1,36.3l-0.3-0.3l-0.3,0.3l-53.6-36.3H2290.8z M2143.3-3193h20.3l59.6,40.4l-80.8,67l-49-62.5   L2143.3-3193z M2088.8-3144l46.8,59.7h-113L2088.8-3144z M2022.1-3078.2h114.2l-45.1,68.5L2022.1-3078.2z M2095.6-3005.3l46.9-71.3   l89.5,83.3l59.6,182.4L2095.6-3005.3z M2238.1-2994.4l65.7-81.8l55.7,81.9l-60.7,185.4L2238.1-2994.4z M2306.1-2811.7l59.6-181.9   l93-82.8l42.6,71.2L2306.1-2811.7z M2505.8-3009.8l-41-68.4h109.9L2505.8-3009.8z M2574.3-3084.3h-109   c15.2-21.8,36.7-52.1,43.2-59.9L2574.3-3084.3z M2480-3115.8c-8.8,12.4-17.4,24.7-21.2,30l-77.7-67l51.5-40.2h22.2l49.1,44.7   C2501-3144.8,2494.6-3136.4,2480-3115.8z"/><path d="M2961-2764.2l2.4-3.1l291.7-313.5l-139.2-146.5l-0.9-1h-72.8h-3.2h-152.8h-3.4h-72.6l-139,147.5l287.6,313.5L2961-2764.2z    M2961.7-2875.5l-102.8-202.4h209.8L2961.7-2875.5z M2865.5-3084.1l96.9-55.2l0.6,0.6l0.6-0.6l99.1,55.2H2865.5z M2964.7-2868   l104.9-198.4l-17.1,172.8l-88.3,115.2L2964.7-2868z M3193.6-3077.9l-134,174.9l17.4-174.9H3193.6z M3080.8-3084.1l41.7-54.7   l68.5,54.7H3080.8z M3002.8-2818.6l167.8-219l-63.3,106.8L3002.8-2818.6z M3204.5-3125.1l39,41H3203L3204.5-3125.1z M3244-3077.9   l-117,125.7l74.5-125.7H3244z M3198.5-3131.4l-1.5,44.2l-72-57.4l-7.3-71.8L3198.5-3131.4z M3110.9-3222.1l7.2,70.6l-69.7-70.6   H3110.9z M3040.7-3221l77.2,78.1l-44.2,57.9l-105.8-58.9L3040.7-3221z M3033.2-3222.1l-70.2,74.4l-70.9-74.4H3033.2z    M2884.5-3221.1l73.5,77.2l-103.5,58.9l-46.6-56.5L2884.5-3221.1z M2850.9-3077.9l12.5,175.5l-133.8-175.5H2850.9z M2732.6-3084.1   l70.6-53.3l44,53.3H2732.6z M2814.3-3222.1h62.5l-69.2,72L2814.3-3222.1z M2726.5-3130.5l81.1-86l-6.8,73.2l-74.3,56V-3130.5z    M2720.3-3123.9v39.8h-37.5L2720.3-3123.9z M2682.1-3077.9h39.5l76.3,126.3L2682.1-3077.9z M2819.2-2928.5l-63.4-105l161.6,212   L2819.2-2928.5z M2958-2778.4l-87.7-115.1L2858-3066l100.6,197.9L2958-2778.4z"/><path d="M309.5-2476.6l-2.1-2.4l-2.2,2.4L148.4-2385L21.3-2239.2l281.6,401.1l0.1,0.5h0.2l3.3,4.7l285.1-406.1L469.5-2385   L309.5-2476.6z M305.3-2251.6l-76.6-127.2h74.4L305.3-2251.6z M223.9-2373.4l79,131.1H187.8L223.9-2373.4z M180.6-2242.3H88.6   L216-2370.7L180.6-2242.3z M303.1-2385.7h-73.6l74.3-79.4L303.1-2385.7z M288.6-2459l-68.6,73.2h-56.6L288.6-2459z M152.2-2378.8   h62.1L89.4-2253l43.3-103.5L152.2-2378.8z M118.4-2340l-40.9,97.7H33.2L118.4-2340z M32.4-2235.4h42.2H79l196.4,346L32.4-2235.4z    M86.9-2235.4h94.2l110.7,361L86.9-2235.4z M303.1-1860.9l-114.8-374.5h117.2L303.1-1860.9z M454.3-2385.7h-63l-67.1-74.5   L454.3-2385.7z M396.2-2370.4l132.6,128.1H434L396.2-2370.4z M426.9-2242.3h-112l73.2-131.4L426.9-2242.3z M310.7-2465l71.4,79.3   H310L310.7-2465z M383-2378.8l-70.8,127.1l-2.2-127.1H383z M312.4-2235.4h114.4L310-1861.9L312.4-2235.4z M434-2235.4h98.1   l-211,361.5L434-2235.4z M340.1-1893l199.9-342.4h3.2h37.3L340.1-1893z M580-2242.3h-39.6l-39-93.9L580-2242.3z M529-2251.6   l-131.6-127.2h68.3l20.8,24.9L529-2251.6z"/><path d="M1127-2391.6L962.3-2486l-2.2-2.5l-2.3,2.4L797-2391.9l-0.5,0.3l-130.8,150l289.8,412.7l0.1,0.5h0.2l3.4,4.8l291.9-415.7   l1.6-2.2l-125.2-149.6L1127-2391.6z M958.6-2392.4h-78.8l76.8-82L958.6-2392.4z M870.1-2392.4h-38.2l96.8-62.5L870.1-2392.4z    M868.3-2385.3l-38.7,140.5h-96.3c13.3-21.6,65.7-104.5,88.5-140.5H868.3z M885.3-2435.4l-66.5,43h-6.9L885.3-2435.4z    M800.4-2385.3h13c-19.4,30.7-79.1,125.1-88.4,140.5h-47.1L800.4-2385.3z M677.1-2237.7H725l202.1,356.1L677.1-2237.7z    M733.2-2237.7h96.9L944-1866.2L733.2-2237.7z M955.7-1852.3l-118.2-385.4h120.6L955.7-1852.3z M958.2-2244.8H837l38.7-140.5h83   L958.2-2244.8z M1111.3-2392.4h-13.7l-58.3-41.2L1111.3-2392.4z M1048.9-2385.3h45.9l96,140.5h-100.3L1048.9-2385.3z M1083-2244.8   H965.3l0.5-140.5h75.7L1083-2244.8z M1085.3-2392.4h-38.8l-68.1-75.7L1085.3-2392.4z M1036.9-2392.4h-71.2l-1.9-81.3L1036.9-2392.4   z M965.3-2237.7h117.7l-120.1,384.4L965.3-2237.7z M1090.4-2237.7h100.9l-217.2,372.1L1090.4-2237.7z M993.8-1885.3l205.7-352.4   h41.7L993.8-1885.3z M1199.4-2244.8l-96-140.5h19.6l117.6,140.5H1199.4z"/><path d="M1326.9-2181.7l-0.2,0l284.6,367.8l-0.2,0.6l0.4-0.2l0.3,1.1l0.5-0.3l2.4,3.1l290.2-371.7h-0.1l-287.9-367.5L1326.9-2181.7   z M1593.4-2506.3L1425-2181.6l-87.9-0.1L1593.4-2506.3z M1602.6-2506.7l-83.1,325.1l-85.5-0.1L1602.6-2506.7z M1343-2173.7   l83.4,0.1l164.9,320.8L1343-2173.7z M1435.3-2173.6l83.3,0.1l83.9,325.1L1435.3-2173.6z M1611.2-1846.7l-84.3-326.8l85.4,0.1   L1611.2-1846.7z M1612.3-2181.4l-84.5-0.1l84.5-330.7V-2181.4z M1640.9-1856.1l164.5-317.2l83,0.1L1640.9-1856.1z M1628.8-1850.2   l82.6-323.2l85,0.1L1628.8-1850.2z M1894.5-2181.2l-88.4-0.1l-168.7-328.3L1894.5-2181.2z M1797.1-2181.3l-83.8-0.1l-84.3-327   L1797.1-2181.3z M1620.3-2509.8l84.7,328.4l-84.7-0.1V-2509.8z M1620.3-2173.4l82.8,0.1l-83.9,328.4L1620.3-2173.4z"/><path d="M2298.2-2546.9l-0.3,0.1l-0.3-0.4l-3.1-3.9l-259.8,323.3l-0.9,1.1l0,105.2l257.4,321.8l0.7,1.3l0.1-0.2l2.4,3.1   l259.9-324.8l0.9-1.1v-105.2l-256.9-319.6L2298.2-2546.9z M2324.4-2229.3H2194l98.2-299L2324.4-2229.3z M2397.4-2126.9h-131.9   l63.7-90.1L2397.4-2126.9z M2335.9-2221.3h130.3l-61,91.5L2335.9-2221.3z M2196-2221.3h126.4l-64.6,91.4L2196-2221.3z    M2250.2-2126.9h-133l71.1-91.6L2250.2-2126.9z M2281.9-2522.7l-96.4,293.5H2046L2281.9-2522.7z M2180.3-2221.3l-71.1,91.7   l-64.8-91.7H2180.3z M2041.7-2211.2l59.6,84.3h-59.6L2041.7-2211.2z M2046-2118.9h60.7l157.8,273.1L2046-2118.9z M2115.9-2118.9   h138.3l35.8,301.2L2115.9-2118.9z M2262.2-2118.9h137.6l-102.4,296.1L2262.2-2118.9z M2305.8-1822.6l102.5-296.3h134.5   L2305.8-1822.6z M2412.9-2126.9l60-90l70,90H2412.9z M2547.2-2134.5l-67.5-86.7h67.5V-2134.5z M2542.8-2229.3h-68.6l-151.4-273.7   L2542.8-2229.3z M2465.1-2229.3h-132.6l-32.1-297.8L2465.1-2229.3z"/><path d="M2962.4-2446.9l-2.2-2.2L2669-2160.2l2.2,2.2l-0.1,0.1l286.9,284.6l2.2,2.2l289-286.7l-0.1-0.1l2.2-2.2L2962.4-2446.9z    M3165.3-2236.9l-43.1,72l-94-83.7l-60.2-183.9L3165.3-2236.9z M3049.7-2157l-25.4,77.5l-52.6-77.5H3049.7z M2971.7-2163.2   l52.6-77.5l25.4,77.5H2971.7z M3056.2-2157h58.6l-82.8,73.7L3056.2-2157z M3056.2-2163.2l-24.1-73.7l82.8,73.7H3056.2z    M2960.5-2435.6l61.4,187.5l-56.3,82.8l-66.4-82.7L2960.5-2435.6z M2865.1-2157l24.1,73.7l-79.2-73.7H2865.1z M2809.9-2163.2   l79.2-73.7l-24.1,73.7H2809.9z M2871.6-2157h87.8l-62.4,77.7L2871.6-2157z M2871.6-2163.2l25.4-77.7l62.4,77.7H2871.6z    M2953.3-2433.5l-60.2,184.4l-90.5,84.2l-47.4-72.1L2953.3-2433.5z M2750.7-2232.5l45.6,69.3h-115.4L2750.7-2232.5z M2680.9-2157   h115.4l-45.6,69.3L2680.9-2157z M2755.2-2083.3l47.4-72.1l90.5,84.2l60.2,184.4L2755.2-2083.3z M2899.3-2072.3l66.4-82.7l56.3,82.8   l-61.4,187.5L2899.3-2072.3z M2968-1887.7l60.2-183.9l94-83.7l43.1,72L2968-1887.7z M3169.9-2087.9l-41.4-69.2h111.1L3169.9-2087.9   z M3128.4-2163.2l41.4-69.2l69.7,69.2H3128.4z"/><path d="M305.6-1478.1l-0.3,0l-148.7,17l-0.9,0.1L19-1347.3l228.2,290.1l0.9,1.2h23.9h22.5h19.9h25.6H370l219.9-289l1.8-2.3   l-136.6-118.6L305.6-1478.1z M425-1462.1l-68.8,9.3l-0.8-0.6l-0.2,0.2l-35.4-17.5L425-1462.1z M426.4-1398.2l-43.3,47.8l-75.8-60   l48.2-35.3L426.4-1398.2z M349.5-1449.1l-47.2,34.6l-45.6-36.2l48-20.7L349.5-1449.1z M297.1-1410.6l-82,60.1l-36.5-50.4l71.8-46.7   L297.1-1410.6z M284.8-1469.5l-33.7,14.5l-0.3-0.2l-1,0.6l-59.2-4.2L284.8-1469.5z M158-1454.8l83.2,5.9l-66.2,43l-28.5-39.3   L158-1454.8z M141.7-1441.3l28.1,38.7l-79.3,51.5l-17.1-33.4L141.7-1441.3z M251.2-1062.2L27.6-1346.4l40.8-34l19.6,38.2l0.3-0.2   l179.8,280.1H251.2z M275.5-1062.2L93.5-1345.7l79.9-51.9l38.2,52.7l74.9,282.7H275.5z M292.9-1062.2L218-1345l84.1-61.7L380-1345   l-64.1,282.8H292.9z M336.6-1062.2h-14.3l64-282.5l45.3-50l73.7,49.5L336.6-1062.2z M583.2-1346.4l-216.2,284.2h-23.1l166.7-279.6   l0.1,0.1l24.7-46.2L583.2-1346.4z M530.5-1392.1l-22.1,41.4l-72.6-48.7l38-42L530.5-1392.1z M430.6-1402.9l-66.6-44.7l88.8-12   l16.3,14.2L430.6-1402.9z"/><path d="M961.5-1587.5l-0.1-0.1l-0.8,0l-6.8-0.7l-2.9,0.3l-0.9,0l-0.2,0.1l-132.4,12.3l-153.4,135l289.8,445l259.8-397.4l33.8-51.7   l-147.8-129.4L961.5-1587.5z M959.2-1579.5l136.7,73.6l-64.6,48L959-1509l-1.2-70.5L959.2-1579.5z M1038.2-1453l64.7-48.1   l49.8,51.9l-40.7,48.4L1038.2-1453z M1102.1-1397.9H964.1l67.3-50L1102.1-1397.9z M949.7-1578.6l1.2,70.5l-69.6,49.8l-62.5-47.6   L949.7-1578.6z M760.5-1450.6l51.2-50.5l62.6,47.7l-73.4,52.6L760.5-1450.6z M792.8-1397.9h-85.7l47.6-47L792.8-1397.9z    M881.1-1448.2l66,50.3H810.8L881.1-1448.2z M820.6-1567.7L932-1578l-118.3,65.7l-13.2-37.6L820.6-1567.7z M793.9-1544.2l12.9,36.7   l-51.3,50.7l-25.3-31.2L793.9-1544.2z M674.5-1439.2l49.5-43.6l25.6,31.6l-50.5,49.8L674.5-1439.2z M706.7-1389.7H798l139.9,355   L706.7-1389.7z M949.5-1027.4l-142.8-362.3h144.7L949.5-1027.4z M888-1453.1l67.5-48.3l68.8,48.7l-68.8,51.2L888-1453.1z    M959.6-1389.7h146.6l-148.5,363.1L959.6-1389.7z M969.9-1035.4l145-354.4h86.7L969.9-1035.4z M1120.3-1397.9l38.2-45.4l43.5,45.4   H1120.3z M1236.6-1443.3l-27.2,41.5l-45.8-47.7l27.9-33.2L1236.6-1443.3z M1185.5-1488.1l-27.5,32.7l-50.1-52.3l9.7-39.9   L1185.5-1488.1z M1100.7-1512.5l-120.8-65l116.2,11.2l14.6,12.8L1100.7-1512.5z"/><path d="M1619.8-1647.6l-0.3,0l-174.4,13.2l-123.8,184.7l294.5,483.5l294.4-483.5l-121.9-183.7L1619.8-1647.6z M1774.7-1627.2   l-79.3,48.8l-65.7-60.9L1774.7-1627.2z M1702.3-1559.2l102.2,110l-121,191.5l42.7-191.1l0.2-0.8L1702.3-1559.2z M1718.9-1449.7   l-43.7,195.7l-48.6-197.2l67.6-110.8L1718.9-1449.7z M1619.5-1638.9l72.2,67l-70.4,115.3l-72.6-113.7L1619.5-1638.9z    M1510.3-1449.5l34.9-112.7l72.2,113.1l-61.8,197.2L1510.3-1449.5z M1546.6-1258.5L1428.5-1448l107.8-110.3l-33.6,108.5   L1546.6-1258.5z M1609.6-1639.5l-66.1,64l-84.9-52.6L1609.6-1639.5z M1448.2-1625.9l89.6,55.5l-110.7,113.2l-21.4-105.4   L1448.2-1625.9z M1330-1449.6l70-104.4l21.1,103.8l8.5,164.1L1330-1449.6z M1437.6-1272.9l-8.3-160l122.3,196.3l55.5,241.9   L1437.6-1272.9z M1558.9-1237.7l63.1-201.5l49.6,201.4L1616-988.7L1558.9-1237.7z M1625-995.7l53.8-240.8l125.7-199l-10.5,162.3   L1625-995.7z M1901.5-1449.6l-99.2,162.8l10.5-162.5c5.4-34.4,14.4-87.3,18.7-105.7L1901.5-1449.6z M1814.7-1505.8   c-3.3,19-6.4,38-8,48.1l-106.8-114.9l85.1-52.4l41.1,61.9C1824.5-1558.3,1821.5-1545.3,1814.7-1505.8z"/><path d="M2290.6-1702.7l-2.5,4.9l-0.1,0l-0.1,0.3l-127.2,248.9l-102.6,133l102.6,132.9l127.6,232.7l0,0.1l0,0l2.2,4.1l132.6-236.9   l98.5-132.9l-98.5-133L2290.6-1702.7z M2214.6-1199.5l-102.1-116.1l102.1-116.2l-28,115.8l-0.2,0.9L2214.6-1199.5z M2194.7-1315   l29-120.1l63.8,119.5l-63.8,119.5L2194.7-1315z M2228.9-1442.4h57.2l1.7,110.3L2228.9-1442.4z M2286-1450.4h-59.4l60-212.7   L2286-1450.4z M2276.9-1658.3l-58.6,207.9h-47.6L2276.9-1658.3z M2166.1-1442.4h47.3l-95.5,108.7l32.9-88.8L2166.1-1442.4z    M2068.2-1315.5l66.1-85.7l-31.2,84.2l-0.5,1.4l31.8,85.8L2068.2-1315.5z M2150.8-1208.6l-33-88.9l95.5,108.7h-47.3L2150.8-1208.6z    M2170.9-1180.8h47.5l58.7,193.7L2170.9-1180.8z M2226.7-1180.8h59.3l0.6,197.5L2226.7-1180.8z M2286-1188.8h-57.2l58.9-110.3   L2286-1188.8z M2413.3-1450.4h-52.9l-56.9-210.5L2413.3-1450.4z M2295.8-1298.9l54.3,110.2H2294L2295.8-1298.9z M2294-1442.4h56.1   l-54.3,110.2L2294-1442.4z M2296.5-1315.6l59-119.6l31.3,119.6l-31.3,119.6L2296.5-1315.6z M2394.8-1314.6l0.3-1l-30.3-115.9   l106.1,115.9l-106.1,115.9L2394.8-1314.6z M2294.6-1662.9l57.5,212.6H2294L2294.6-1662.9z M2294-1180.8h58l-57.4,198.5L2294-1180.8   z M2304-985.9l56.3-194.8h52.8L2304-985.9z M2417.9-1188.8h-52.3l101-110.3l-32.3,88.2L2417.9-1188.8z M2511.8-1315.5l-60.7,81.9   l30-82l-30-81.8L2511.8-1315.5z M2466.6-1332.1l-101-110.3h52.2l16.4,22.2L2466.6-1332.1z"/><path d="M2912.1-945.3h25.4h19.3h0.6h19.3h21.4l155.1-318.9l0.4-0.8l0-117.9l-155.5-319.8h-21.4h-19.3h-0.6h-19.3h-25.4l-150,319   l-0.4,0.8l0,117.8L2911-947.7L2912.1-945.3z M2943-953.5l-126.7-311.8l35.8-53.8l43,55.4l52,310.2H2943z M2811.5-1272.8L2771-1326   l40.5-49.5l35.4,49.5L2811.5-1272.8z M2857.1-1326l42.2-50.7l52.6,50.7l-52.6,54.4L2857.1-1326z M2955.4-953.5l-52.1-310.5   l53.7-55.6l54.1,55.6l-52.4,310.5H2955.4z M2962.3-1326l52.9-50.7l42.4,50.7l-42.4,54.4L2962.3-1326z M2971.2-953.5h-4.2   l52.3-310.2l43.2-55.5l36,53.8L2971.2-953.5z M3067.9-1326l35.6-49.5l40.8,49.5l-40.8,53.2L3067.9-1326z M3145.4-1266.9L2993-953.5   h-12.9l126.8-310.2l38.5-50.3L3145.4-1266.9z M2993-1694.5l152.4,313.5l0,43.6l-38.6-46.9l-126.8-310.2H2993z M2971.2-1694.5   l127.4,311.7l-36,50l-43.3-51.7l-52.3-310.1H2971.2z M2958.8-1694.5l52.4,310.4l-54.1,51.8l-53.7-51.8l52.1-310.4H2958.8z    M2943-1694.5h4.1l-52,310.1l-43,51.7l-35.7-50L2943-1694.5z M2769.9-1381.1l147.4-313.4h16.9l-126,310.2l-38.3,46.8L2769.9-1381.1   z M2769.9-1314l38.3,50.2l126,310.2h-16.9l-147.4-313.4L2769.9-1314z"/><path d="M310.3-102.2l0.2,0.3l1.5,0.2l4.5,1.2l1,0.3l2.3-0.6l1.7,0.2l0.5-0.7l95.6-23.9l108.8-258.5l0.3-0.7l-0.4-180.1L421.3-813   l-99.7-25.9l-0.2-0.3l-1.5-0.2l-4.5-1.2l-1-0.3l-2.3,0.6l-1.7-0.2l-0.5,0.7l-95.6,23.9L105.4-557.3l-0.3,0.7l0.4,180.1L210.5-128   L310.3-102.2z M214-256l47.5-95.3l51,97.4l0.9,142.2L214-256z M204.6-479.4L171-591.1l40.7-85.1l45.8,94.4L204.6-479.4z    M261.9-572.8l49.9,102.7l-50.5,101.3l-52.8-100.8L261.9-572.8z M198.4-472.1l-33.7,108.2l-49.8-109.9l51-106.5L198.4-472.1z    M202.5-458.4l0.1,0.2l1.4-2.8l52.9,101l-47.4,95l-39.9-88L202.5-458.4z M316.1-264.3l-50.2-95.8l50.1-100.6l49.2,101.3   L316.1-264.3z M433.4-468.9l33.9-108.8l50.1,109.5l-51.5,107.6L433.4-468.9z M460.8-350l-40.7,85.1l-45.8-94.4l53-102.4L460.8-350z    M429.3-482.6l-0.1-0.2l-1.4,2.8l-52.9-101l47.4-95l40,87.5L429.3-482.6z M423.3-471.4l-53.4,103.2L320-470.9l50.5-101.3   L423.3-471.4z M321.4-115l-0.9-140.5l49.1-94.9l45.9,94.4L321.4-115z M411.8-132.1l-83.2,20.8l88.9-133.3l9.8,75.5L411.8-132.1z    M433.5-183.7l-9.3-71.3l40-83.6l14.4,47.8L433.5-183.7z M518.7-386.1l-35.3,83.8l-14.1-47l49.3-102.9L518.7-386.1z M518.3-563   l0.2,77.9l-47.7-104.1l15.4-49.6L518.3-563z M481.5-650.2l-15.6,50.1l-39.4-86l7-77.5L481.5-650.2z M415.4-806.2l11.4,27l-7.5,82.5   l-90.9-132.1L415.4-806.2z M417.8-685l-47.5,95.3l-51-97.4l-0.9-142.2L417.8-685z M315.7-676.7l50.2,95.8l-50.1,100.6l-49.2-101.3   L315.7-676.7z M310.4-826.1l0.9,140.5l-49.1,94.9l-45.9-94.4L310.4-826.1z M220-808.9l83.2-20.8l-88.9,133.3l-9.8-75.5L220-808.9z    M198.3-757.4l9.3,71.3l-40,83.5l-14.4-47.8L198.3-757.4z M113.1-554.9l35.3-83.8l14.1,46.9l-49.2,102.9L113.1-554.9z M113.5-378   l-0.2-80l47.9,105.6l-15.6,50.2L113.5-378z M150.3-290.9l15.8-50.6l39.2,86.5l-7,77.5L150.3-290.9z M212.4-244.3l90.9,132.1   l-86.9-22.6l-11.4-27L212.4-244.3z"/><path d="M1109.8-754.7L952.2-845l-2.5-2.8l-2.6,2.8l-154.3,90.3L669.7-471.2l-0.7,1.6l124.2,284l0.5,1.2l156.8,91.8l160.2-91.8   l118.9-285.1l-119.3-283.9L1109.8-754.7z M947.5-468.1l-77.5,256.7l-37-257.6l34.8-263L947.5-468.1z M861.3-216.1l-130-253.5   l127.9-257.9l-34.2,258l-0.1,0.5L861.3-216.1z M871.4-747.9h73.4l2.2,250.5L871.4-747.9z M944.9-755.9h-70.2l70.9-75.7L944.9-755.9   z M927.9-824.5l-60.2,64.3l-0.4-1.5l-2.1,4.2l-1.5,1.6h-53L927.9-824.5z M798.6-747.9h61.9l-125,252.1l35.9-189.4L798.6-747.9z    M677.7-469.6L756.9-652l-34.4,181.7l-0.1,0.8l35.5,183L677.7-469.6z M797.2-196.5l-24.9-57l0.1,0l-36.9-190.7L862.1-197h-65   V-196.5z M801.8-189h63.1l2.9,3.1l1.8,3.6l0.4-1.2l71.4,76.3L801.8-189z M875.9-189h69.9l0,1.5l0.7,73.8L875.9-189z M945.8-197   h-71.8L948-441.7L945.8-197z M1091.6-755.9h-59.2l-0.7-0.7l-2.2-4.3l-0.4,1.4L969.3-826L1091.6-755.9z M1037.5-728.1l134.1,258.4   l-132,250.4l36.6-249.8l0.1-0.6L1037.5-728.1z M1068.3-469.6l-38.2,260.9l-74-262l-0.1-0.5l73.2-259.1L1068.3-469.6z M1025.1-197   h-71.3l2.1-244.7L1025.1-197z M953.6-831.5l68,75.6h-68.7L953.6-831.5z M1025.8-747.9L955-497.5l-2.2-250.4H1025.8z M953.7-187.5   l0-1.5h69.1l-68.4,76L953.7-187.5z M960.2-107.4l68.6-76.2l0.4,1.4l2.4-4.6l1.9-2.2h68.9L960.2-107.4z M1107.3-197H1037   l131.6-249.7l-34.4,185L1107.3-197z M1220.9-469.5l-72,172.6l32-172l0.1-0.7l-33-173.3L1220.9-469.5z M1168.4-493.4l-132.1-254.6   h67.7l29.4,70.1l-0.1,0L1168.4-493.4z"/><path d="M1861.4-607.5l-15.3-58.7l-229-172.8l-2.5-1.9l-2.7,2.1l-0.1,0l-0.2,0.2l-227.3,172.4l-15.3,58.7l-1.5,283.5l0,0.6   l16.9,57.7l227.9,164.6l0.3,0.4l0.2,0l2.5,1.8l2.4-1.7l0.3,0l0.3-0.4l226.7-162.7l1.2-0.8l16.9-58.8l-1.5-283.6L1861.4-607.5z    M1851.8-611.1h-68l-38.3-48.4h93.7L1851.8-611.1z M1777.6-605.5v280.1l-36.9,46.7v-373.4L1777.6-605.5z M1830-667.9h-91.3   l-105.1-148.2L1830-667.9z M1543.3-611.1l-41.1-48.4h225.7l-38.3,48.4H1543.3z M1687.8-328.2h-142.3v-274.6h142L1687.8-328.2z    M1537.2-605.4v280.3l-39.8,46.9v-374.2L1537.2-605.4z M1543.6-319.8H1690l38.1,48.2l-224.8-0.5L1543.6-319.8z M1696.2-325.4   l-0.3-280.1l36.5-46.2v372.1L1696.2-325.4z M1614.6-828.4l113.8,160.5h-227.2L1614.6-828.4z M1595.7-816L1491-667.9h-90.6   L1595.7-816z M1391.2-659.6h93.7l-38.3,48.4h-68L1391.2-659.6z M1489-651.3v371.6l-36.2-45.8v-280.1L1489-651.3z M1377.4-602.8   h67.1v274.6h-68.6L1377.4-602.8z M1377.3-319.8h69.4l37.6,47.6l-93.1-0.2L1377.3-319.8z M1401-264l90.3,0.2l104.4,140.4L1401-264z    M1615.2-111.1l-113.5-152.6l226,0.5L1615.2-111.1z M1634.4-123L1738-263.2l91.4,0.2L1634.4-123z M1839.3-271.4l-93.6-0.2   l38.1-48.2h69.4L1839.3-271.4z M1786-328.2v-274.6h67.1l1.5,274.6H1786z"/><path d="M2474.4-538l0.2-0.1l-65.9-178.1l0.4-0.2l-70.4-125.5l-38.6,0.3l-31.7,0.2l0,0l-6.2,0l-72.6,127.6l0.4,0.2L2126.2-538   l0.1,0.1l-26.3,72.7l26.3,72.7l-0.1,0.1l64.5,177.7l3.8-1.4l-3.5,2l71.2,125l6.2,0l0,0l31.7,0.2l38.6,0.3l68.9-122.7l-3.5-2   l3.8,1.4l66.7-180.5l-0.1-0.1l18.4-73.4L2474.4-538z M2483.5-469.9l-61.1,0.1l46.3-57.9L2483.5-469.9z M2413.3-471.1l-53.5-67.7   l11.2-202.2l95.1,203.9L2413.3-471.1z M2405.9-461.8l-48.3,61.5l-50.2-61.3L2405.9-461.8z M2307.8-469.6l48-61.5l48.5,61.3   L2307.8-469.6z M2400.4-715.4l32.9,88.9l-83.8-179.6L2400.4-715.4z M2304.4-833.6l1.6,0l21.8-0.1l36,77.2l-10.6,190.8l-48.9-219.5   V-833.6z M2300.4-766.4l50.8,228.1l-51.8,66.5l-50.1-65.3L2300.4-766.4z M2195.2-469.4l49.2-60.8l46.6,60.6L2195.2-469.4z    M2290.7-461.6l-54.4,61.3l-43.8-61.1L2290.7-461.6z M2273.4-833.4l22.9-0.1v48.3L2246.8-563l-9.5-193.2L2273.4-833.4z    M2198.1-712.6l56.3-98.9L2164-618.6L2198.1-712.6z M2230-740.7l10,203.2l-54.1,66.9l0,0l-0.1,0.1l-51.1-66.7L2230-740.7z    M2131.3-528.3l45.2,58.9l-66.5,0.1L2131.3-528.3z M2110-461.3l68.5-0.1l-47.1,59.3L2110-461.3z M2185.5-457.3l46.4,64.7   l-2.4,201.6l-94.8-202.3L2185.5-457.3z M2198.1-217.9l-34.1-94.1l90.4,192.9L2198.1-217.9z M2296.4-97l-22.9-0.1l-36.2-77.2   l2.3-191.2l56.8,220.3V-97z M2240.7-393.3l58.4-65.7l0.2,0.3l0.1-0.1l53.7,65.7l-53,230.5L2240.7-393.3z M2327.8-96.8l-23.4-0.2   v-48.4l50.6-220.2l8.8,191.5L2327.8-96.8z M2400.4-215.1l-50.9,90.7l83.8-179.6L2400.4-215.1z M2371.1-189.7l-9.4-202.9l51.6-65.7   l52.8,65L2371.1-189.7z M2468.7-402.8l-47.9-59l62.7-0.1L2468.7-402.8z"/><path d="M3188-662.2l-203-171l-2.6,2.2l-0.1,0l-0.2,0.3l-196.7,168.5l-48.7,191.5l-1.1,1.6l1.1,1.7l50.7,195l0.3,1.3l195,160.9   l0.3,0.5l0.2,0l2.4,2l2.4-1.9l0.2,0l0.4-0.5L3188-271l50.8-197.8l1.1-1.7l-1.2-1.7L3188-662.2z M3225-492.2l-113.1-163.7l69.3,0   L3225-492.2z M3173.2-664l-66.9,0l-2.3-3.4l0,0.1l-97.1-136.9L3173.2-664z M2980.5-466.7l-110,178.8v-357.6L2980.5-466.7z    M2873.7-655.8l223.2,0l-111.6,181.4L2873.7-655.8z M2985.2-458.9l112.1,182.2l-223.8-0.5L2985.2-458.9z M2990-466.7l110-178.8   v357.6L2990-466.7z M2985-820.8L3096.2-664l-222,0L2985-820.8z M2962.8-803.5L2864.2-664l-64.3,0L2962.8-803.5z M2792.1-655.8l66,0   c-18.9,26.5-78.2,117.9-107.6,163.6L2792.1-655.8z M2862.3-647.6v360.3l-117-181.7C2785.3-531.2,2842.4-619,2862.3-647.6z    M2750.8-445.4L2859-277.3l-64.6-0.2L2750.8-445.4z M2802.7-269.3l61.6,0.2l2.1,3.3l0.2-0.4l95.6,128.5L2802.7-269.3z    M2985.6-119.9l-110.9-149.1l220.8,0.5L2985.6-119.9z M3007.7-136.2l96.1-130l0.2,0.3l1.8-2.7l65.9,0.2L3007.7-136.2z M3181-276.5   l-69.8-0.2l113.9-171.5L3181-276.5z M3108.2-286.9v-359.9l121.9,176.4L3108.2-286.9z"/><path d="M577.8,352.5h-1L308,89.8l-2.4,2.4l0,0l-0.1,0.1L41.9,352.5h-0.7L20.4,396l18.9,39.5l-0.7,0.7l2,1.9l0.6,1.3h0.7   l268.7,262.6l2.4-2.4l0,0l0.1-0.2l263.6-260.1h1.1l0.5-1.5l1.7-1.6l-0.9-1l12.5-41.8L577.8,352.5z M567.4,352.5h-32.7l-56.2-86.9   L567.4,352.5z M566.4,359l-29.6,24.8V359H566.4z M428.6,392.5l50.5-32.9l48.8,31.3l-55.7,41L428.6,392.5z M463.5,433h-36.9v-33.5   L463.5,433z M426.5,386.1V359h41.5L426.5,386.1z M412,247.3l112.7,105.2h-43.9L412,247.3z M473,352.5h-47l-24.5-109.2L473,352.5z    M376.3,359H420v28.1L376.3,359z M413.9,391l-55.7,41l-43.6-39.5l50.5-32.9L413.9,391z M367.8,352.5L344.5,246l72.4,106.5H367.8z    M361.1,352.5h-46.2l22.8-106.9L361.1,352.5z M354.2,359l-40.3,26.2V359H354.2z M349.6,433h-35.6v-32.3L349.6,433z M354.1,439.5   l-17.4,96.1l-22-96.1H354.1z M360.7,439.5h56l-74,99.3L360.7,439.5z M368,433l52-38.3V433H368z M425.9,439.5h40.1l-58.8,95.3   L425.9,439.5z M473.7,439.5h51.7l-111,96L473.7,439.5z M481.9,433l48.5-35.7V433H481.9z M490.2,359h40.1v25.8L490.2,359z    M457.4,245l58.4,90.3L397,224.3l-69.7-106.6L457.4,245z M391.4,227.7l25.3,112.7l-75.9-111.6l-25.7-117.7L391.4,227.7z    M308.2,110.3l26.2,119.9l-23.9,112l-26.6-111.4L308.2,110.3z M256.1,359.7l48.8,31.3l-55.7,41l-43.6-39.5L256.1,359.7z    M203.6,386.1V359h41.5L203.6,386.1z M252.5,352.5h-45.8l67.1-105.2L252.5,352.5z M280.7,245.9l25.5,106.6h-47.1L280.7,245.9z    M197.9,352.5h-47.6l70.8-113.1L197.9,352.5z M197,396.2V433h-49.8L197,396.2z M137.5,432l-43.6-39.5l50.5-32.9l48.8,31.3   L137.5,432z M155.5,359h41h0.5v26.7L155.5,359z M142.6,352.5H97.4l110.8-104.7L142.6,352.5z M133.4,359l-41.5,27.1V359H133.4z    M128.8,433H91.8v-33.5L128.8,433z M135.5,439.5l59.9,90.3c-27.8-25.7-75.4-69-99-90.3H135.5z M143.3,439.5h54.1l11.7,99.1   L143.3,439.5z M203.6,399.5l36.9,33.5h-36.9V399.5z M246.4,439.5l24,101.9l-64.2-101.9H246.4z M253.1,439.5h53.3l-28.1,106.7   L253.1,439.5z M258.9,433l48.5-35.7V433H258.9z M267.2,359h40.1v25.8L267.2,359z M277.4,229.5l-70.2,110l23.8-116l70.3-112.2   L277.4,229.5z M290.5,116.3L222,225.7L104,337.2l56.2-92.3L290.5,116.3z M141.1,263.8l-54,88.7H51.2L141.1,263.8z M85.3,359v26.3   L52.5,359H85.3z M27.6,396l16.8-35.1l39.2,31.5l-39.4,38.4L27.6,396z M85.3,399.8V433h-34L85.3,399.8z M51.3,439.5h35.1l40.9,74.3   L51.3,439.5z M143.4,529.5l-42.5-77.2c47.1,42.8,107.1,97.4,110.4,101.4l7.5,11.3l0,0l72.1,108.6L143.4,529.5z M217.1,550.7   l-11.9-100.5L275.1,561l28.2,119.6L217.1,550.7z M310.2,681.6l-28.7-121.8l28.9-109.8l23.3,102L310.2,681.6z M340.1,553.2   l77.1-103.5l-19.8,100.9l-80.5,130.5L340.1,553.2z M327.7,676.1L403.1,554l118-102.1l-44.8,77.6L327.7,676.1z M493.8,512.2l42-72.7   h31.7L493.8,512.2z M536.8,433v-33.8L568,433H536.8z M574,429.8l-35.5-38.5l0.9-0.7l-0.3-0.2l34.8-29.1l10.9,32.3L574,429.8z"/></g></svg>